<svg width="248" height="78" viewBox="0 0 248 78" fill="none" xmlns="http://www.w3.org/2000/svg">
<path d="M45.7572 39.6005C39.8372 53.3605 27.1972 59.0405 18.7172 59.0405C17.3572 59.0405 16.0772 58.8805 14.9572 58.5605C14.9572 58.5605 14.8772 58.5605 14.7972 58.5605C4.71719 56.5605 -0.00280905 47.4405 3.99719 32.6405C4.55719 30.3205 5.19719 28.8005 5.83719 26.2405L9.35719 13.2005C10.3172 9.68047 7.43719 9.12047 7.83719 7.60047C7.99719 6.96046 8.63719 6.64047 9.43719 6.48047C18.3172 4.80047 26.1572 1.84047 28.3172 1.84047C29.9172 1.84047 29.3572 3.92047 29.1172 4.96047C28.5572 6.96046 28.0772 8.48047 27.5172 10.4805L23.1972 26.6405L18.2372 36.0805C17.8372 36.8805 18.7972 37.2005 19.1972 36.3205C23.1172 27.0405 28.3972 21.0405 36.0772 21.0405C43.8372 21.0405 51.0372 26.9605 45.7572 39.6005ZM28.7972 40.4805C30.7972 34.6405 31.1172 29.4405 27.7572 29.4405C24.5572 29.4405 20.1572 37.7605 18.7172 42.9605C16.9572 49.6805 19.7572 50.8005 21.2772 50.8005C23.9172 50.8005 26.6372 46.6405 28.7972 40.4805ZM65.9172 44.4805C64.3972 50.0005 63.5972 54.8005 67.1172 54.8005C70.5572 54.8005 71.9172 50.4805 72.8772 47.9205C73.1972 46.8805 74.0772 46.3205 74.7972 46.3205C75.4372 46.3205 75.9172 46.8805 75.5972 47.9205C74.0772 52.0805 70.8772 59.1205 62.4772 59.1205C55.1172 59.1205 45.9972 55.2005 49.4372 42.0805L57.0372 12.8805C57.8372 9.84047 55.0372 9.04047 55.4372 7.60047C55.5972 6.96046 56.2372 6.64047 57.0372 6.48047C65.9972 4.80047 73.9972 1.84047 76.2372 1.84047C77.5172 1.84047 77.2772 3.68046 77.0372 4.72046C76.3172 7.36046 67.0372 40.5605 65.9172 44.4805ZM103.783 0.000468254C106.423 0.000468254 110.103 2.48046 108.663 7.76047C107.383 12.6405 101.223 17.6805 96.0228 17.6805C93.1428 17.6805 90.8228 13.0405 91.5428 10.4005C92.9028 5.44046 98.5028 0.000468254 103.783 0.000468254ZM99.8628 42.9605C97.9428 48.7205 99.5428 50.8005 101.223 50.8005C103.543 50.8005 105.463 48.6405 106.423 46.0005C106.743 45.0405 107.623 44.4805 108.343 44.4805C109.063 44.4805 109.543 45.0405 109.143 46.0805C107.623 50.1605 103.143 59.1205 89.9428 59.1205C81.7828 59.1205 79.3828 52.4805 83.0628 42.8805L84.8228 37.6805C86.1028 34.4805 85.3828 33.2805 84.1828 33.2805C82.9828 33.2805 81.0628 34.5605 80.1828 36.3205C79.7028 37.2005 78.9828 37.6805 78.4228 37.6805C77.5428 37.6805 76.8228 36.5605 77.6228 34.7205C79.3828 30.8805 86.6628 21.1205 94.8228 21.1205C98.9028 21.1205 106.023 23.6005 102.823 33.4405C102.423 34.8005 100.423 40.9605 99.8628 42.9605ZM132.212 30.6405L128.452 43.3605C128.692 43.5205 128.932 43.6005 129.332 42.8005C132.932 34.0805 139.892 21.0405 150.292 21.0405C155.252 21.0405 162.532 24.0005 159.172 34.9605L157.092 42.7205C160.692 34.0005 167.812 21.0405 178.132 21.0405C183.092 21.0405 190.612 24.0005 186.932 34.9605L184.292 43.0405C182.212 49.1205 183.972 50.8005 185.652 50.8005C187.892 50.8005 189.892 48.6405 190.852 46.0805C191.172 45.0405 192.052 44.5605 192.772 44.5605C193.492 44.5605 193.972 45.0405 193.572 46.0805C192.052 50.2405 187.572 59.1205 174.372 59.1205C166.212 59.1205 163.492 52.8805 166.932 44.1605L168.772 39.4405C170.292 35.5205 169.972 33.2805 168.052 33.2805C164.852 33.2805 156.852 44.4005 154.932 52.3205C155.092 55.0405 156.852 55.3605 156.372 57.2005C156.212 57.9205 155.492 58.4805 154.772 58.4805H133.972C133.252 58.4805 132.852 57.9205 133.012 57.2005C133.412 55.8405 137.092 55.1205 137.892 52.0005L141.252 39.5205C142.212 35.6005 142.052 33.2805 140.212 33.2805C137.092 33.2805 129.412 44.1605 127.252 52.0005V52.1605C127.092 55.1205 129.252 55.8405 128.932 57.2005C128.772 57.9205 127.972 58.4805 127.332 58.4805H106.532C105.812 58.4805 105.412 57.9205 105.572 57.2005C105.972 55.8405 109.092 55.2005 109.892 52.1605L115.172 32.7205C116.292 28.4805 113.172 28.8805 113.572 27.3605C113.732 26.8005 114.292 25.7605 115.572 25.6805C129.252 25.3605 131.092 21.6005 133.252 21.6005C134.772 21.6005 134.372 23.4405 134.132 24.4805C133.572 26.5605 132.852 28.4805 132.212 30.6405ZM209.888 70.4805C199.728 72.1605 195.168 73.7605 187.168 77.6805C186.448 78.0005 186.048 77.1205 186.208 76.4005C186.608 75.0405 189.888 73.7605 190.608 71.3605L200.928 32.6405C201.808 29.5205 199.008 28.8005 199.408 27.2805C199.568 26.7205 200.208 26.4005 201.008 26.2405C209.968 24.5605 217.648 21.6005 219.808 21.6005C221.328 21.6005 220.928 23.4405 220.608 24.4805C220.528 24.8005 220.448 25.1205 220.368 25.4405C223.328 22.5605 226.768 21.0405 230.768 21.0405C241.568 21.0405 247.248 29.0405 244.288 40.0805C241.168 51.6005 230.448 59.2005 220.528 59.2005C216.528 59.2005 213.808 57.6005 212.448 54.6405L209.808 64.3205C209.168 66.8005 211.888 67.7605 211.488 69.2005C211.328 69.9205 210.608 70.3205 209.888 70.4805ZM226.768 40.4005C228.688 33.3605 227.808 29.0405 224.448 29.0405C221.248 29.0405 218.288 33.0405 216.448 39.7605C214.608 46.7205 215.488 51.1205 218.768 51.1205C221.888 51.1205 225.008 47.1205 226.768 40.4005Z" fill="white"/>
</svg>
